<?xml version="1.0" encoding="utf-8"?>
<!-- Generator: Adobe Illustrator 17.0.2, SVG Export Plug-In . SVG Version: 6.00 Build 0)  -->
<!DOCTYPE svg PUBLIC "-//W3C//DTD SVG 1.1//EN" "http://www.w3.org/Graphics/SVG/1.1/DTD/svg11.dtd">
<svg version="1.1" id="Capa_1" xmlns="http://www.w3.org/2000/svg" xmlns:xlink="http://www.w3.org/1999/xlink" x="0px" y="0px"
	 width="214px" height="50px" viewBox="0 0 214 50" style="enable-background:new 0 0 214 50;" xml:space="preserve">
<style type="text/css">
	.st0{fill-rule:evenodd;clip-rule:evenodd;fill:#FFFFFF;}
	.st1{fill:#FFFFFF;}
</style>
<g>
	<g>
		<path class="st0" d="M36.9,15.5v-0.6c0-1.1-0.1-2.3-0.3-3.3l6.4,0c2.4,0,4.4,2,4.4,4.4v19c0,2.4-2,4.4-4.4,4.4H5.5
			c-2.4,0-4.4-2-4.4-4.4V16c0-2.4,2-4.4,4.4-4.4H12c-0.2,1.1-0.3,2.3-0.3,3.5c0,7.6,4.9,13.7,12.9,13.7c5.5,0,9.8-2.8,12.4-7.6
			l-5-2.8c-1.8,3-3.6,5.1-7.4,5.1c-4.1,0-6.8-3.4-7.1-7.3l0-0.7C19.8,15.5,36.9,15.5,36.9,15.5z"/>
		<path class="st0" d="M12,11.6C13.1,5.4,17.3,1,24.5,1c7.2,0,11.1,4.5,12.1,10.6h-5.7c-0.7-3.2-3-5.3-6.4-5.3
			c-3.3,0-5.8,2.2-6.6,5.3H12z"/>
	</g>
	<g>
		<g>
			<rect x="161.3" y="1.9" class="st1" width="4.5" height="35.9"/>
			<path class="st1" d="M110,17.8c1.2-1.4,3.1-2.5,5.1-2.5c2.6,0,4.5,1.2,5.9,3.3c1.4-2,3.8-3.3,6.3-3.3c5.7,0,7.1,4.5,7.1,9.2v13.3
				h-4.5V25.2c0-2.7-0.6-5.6-3.6-5.6c-3.7,0-4.1,3.8-4.1,7.1v11.1h-4.7V25.9c0-2.3,0-6.3-3.3-6.3c-3.7,0-4.4,3.8-4.4,7.1v11.1h-4.4
				V16h4.7V17.8z"/>
			<rect x="76" y="1.9" class="st1" width="4.4" height="35.9"/>
			<path class="st0" d="M63.9,19.5c-2.7,0-4.7,1.8-5.3,4.3H69C68.5,21.2,66.6,19.5,63.9,19.5z M73.8,26.6v1H58.3
				c0.2,3.2,2.4,5.9,5.7,5.9c3.1,0,4.5-1.7,5.9-4.1l4,2.2c-2.1,3.8-5.6,6.1-10,6.1c-6.5,0-10.4-4.9-10.4-11.1
				c0-6.4,3.5-11.4,10.3-11.4C70.7,15.4,73.8,20.4,73.8,26.6z"/>
			<path class="st0" d="M93,19.6c-2.6,0-4.6,1.8-5.2,4.3H98C97.5,21.3,95.7,19.6,93,19.6z M102.7,26.6v1H87.5
				c0.2,3.1,2.4,5.9,5.6,5.9c3,0,4.4-1.7,5.9-4.1l3.9,2.2c-2,3.8-5.5,6.1-9.8,6.1c-6.4,0-10.2-4.9-10.2-11.1
				c0-6.4,3.4-11.3,10.2-11.3C99.6,15.4,102.7,20.4,102.7,26.6z"/>
			<path class="st0" d="M142.2,26.5c0,3.7,2.2,7,6,7c4,0,6.2-3.1,6.2-7c0-3.8-2.3-6.9-6.2-6.9C144.5,19.6,142.2,22.9,142.2,26.5z
				 M142.4,18.7c1.7-2,4-3.3,6.8-3.3c6.2,0,10,5.3,10,11c0,6-3.6,11.4-10.1,11.4c-2.7,0-5-1.3-6.6-3.2V49h-4.7V16h4.7V18.7z"/>
			<path class="st0" d="M178.3,19.5c-2.7,0-4.7,1.8-5.3,4.3h10.4C182.9,21.2,181,19.5,178.3,19.5z M188.2,26.6v1h-15.5
				c0.2,3.2,2.4,5.9,5.7,5.9c3.1,0,4.5-1.7,5.9-4.1l4,2.2c-2.1,3.8-5.6,6.1-10,6.1c-6.5,0-10.4-4.9-10.4-11.1
				c0-6.4,3.5-11.4,10.3-11.4C185.1,15.4,188.2,20.4,188.2,26.6z"/>
		</g>
	</g>
	<g>
		<g>
			<path class="st0" d="M201.7,15.4c-6.3,0-11.2,4.9-11.2,11.2c0,6.3,5,11.2,11.2,11.2c6.3,0,11.3-4.9,11.3-11.2
				C212.9,20.3,208,15.4,201.7,15.4z M201.7,33.3c-3.6,0-6.5-3.1-6.5-6.7c0-3.7,2.9-6.7,6.5-6.7c3.6,0,6.6,3,6.6,6.7
				C208.2,30.2,205.3,33.3,201.7,33.3z"/>
		</g>
	</g>
</g>
</svg>
