<svg xmlns="http://www.w3.org/2000/svg" width="214" height="50" viewBox="0 0 214 50"><path fill-rule="evenodd" clip-rule="evenodd" fill="#006CB1" d="M36.476 15.484v-.636c0-1.157-.081-2.276-.251-3.364l6.448.006c2.444 0 4.439 1.992 4.439 4.413v19.126c0 2.416-1.995 4.428-4.439 4.428H4.92c-2.429 0-4.42-2.012-4.42-4.428V15.903c0-2.421 1.991-4.419 4.42-4.419h6.552a19.113 19.113 0 0 0-.312 3.499c0 7.681 4.888 13.813 13 13.813 5.519 0 9.881-2.84 12.48-7.592l-4.992-2.809c-1.822 3.017-3.541 5.097-7.411 5.097-4.133 0-6.869-3.433-7.149-7.36l-.059-.647h19.447z"/><path fill-rule="evenodd" clip-rule="evenodd" fill="#1A171C" d="M11.472 11.484C12.591 5.292 16.79.826 24.057.826c7.203 0 11.128 4.569 12.168 10.658h-5.728c-.721-3.279-3.009-5.313-6.44-5.313-3.328 0-5.866 2.2-6.631 5.313h-5.954z"/><path fill="#1A171C" d="M161.605 1.798h4.479v36.073h-4.479zM110.016 17.785c1.248-1.445 3.118-2.494 5.149-2.494 2.545 0 4.516 1.232 5.873 3.308 1.458-2.013 3.769-3.308 6.267-3.308 5.798 0 7.23 4.561 7.23 9.241v13.339h-4.549V25.177c0-2.725-.628-5.567-3.601-5.567-3.732 0-4.1 3.825-4.1 7.106v11.155h-4.782V25.928c0-2.332 0-6.318-3.328-6.318-3.744 0-4.438 3.778-4.438 7.106v11.155h-4.452V15.9h4.73v1.885zM75.871 1.798h4.454v36.03h-4.454z"/><path fill-rule="evenodd" clip-rule="evenodd" fill="#1A171C" d="M63.682 19.526c-2.704 0-4.723 1.781-5.314 4.277h10.457c-.567-2.599-2.392-4.277-5.143-4.277m9.98 7.083v1.001H58.066c.208 3.162 2.393 5.97 5.721 5.97 3.121 0 4.508-1.664 6.002-4.134l3.983 2.262c-2.08 3.849-5.58 6.151-9.991 6.151-6.547 0-10.487-4.924-10.487-11.144 0-6.448 3.514-11.425 10.389-11.425 6.797.001 9.979 5.082 9.979 11.319M92.909 19.54c-2.653 0-4.682 1.81-5.27 4.336h10.363c-.607-2.647-2.389-4.336-5.093-4.336m9.812 7.072v1.04H87.366c.208 3.141 2.376 5.928 5.646 5.928 3.077 0 4.466-1.664 5.93-4.074l3.933 2.242c-2.061 3.819-5.494 6.141-9.877 6.141-6.434 0-10.307-4.933-10.307-11.146 0-6.426 3.44-11.362 10.219-11.362 6.697-.001 9.811 5.039 9.811 11.231M142.426 26.53c0 3.722 2.167 7.05 6.069 7.05 3.956 0 6.24-3.166 6.24-7.05 0-3.82-2.284-6.921-6.24-6.921-3.771 0-6.069 3.259-6.069 6.921m.22-7.926c1.662-2.006 3.981-3.312 6.772-3.312 6.149 0 10.035 5.389 10.035 11.112 0 6.024-3.638 11.455-10.187 11.455-2.644 0-4.998-1.28-6.621-3.213v14.527h-4.755V15.9h4.755v2.704zM178.662 19.526c-2.709 0-4.726 1.781-5.313 4.277h10.508c-.619-2.599-2.454-4.277-5.195-4.277m9.984 7.083v1.001h-15.605c.213 3.162 2.447 5.97 5.789 5.97 3.097 0 4.44-1.664 5.938-4.134l4.038 2.262c-2.096 3.849-5.568 6.151-10.045 6.151-6.553 0-10.493-4.924-10.493-11.144 0-6.448 3.524-11.425 10.394-11.425 6.859.001 9.984 5.082 9.984 11.319M202.162 15.38c-6.268 0-11.232 4.887-11.232 11.232 0 6.372 4.965 11.276 11.232 11.276 6.354 0 11.339-4.904 11.339-11.276-.001-6.345-4.985-11.232-11.339-11.232m0 17.964c-3.612 0-6.56-3.092-6.56-6.731 0-3.644 2.947-6.698 6.56-6.698 3.707 0 6.643 3.055 6.643 6.698-.001 3.639-2.942 6.731-6.643 6.731"/></svg>