<?xml version="1.0" encoding="UTF-8" standalone="no"?>
<!-- Created with Inkscape (http://www.inkscape.org/) -->

<svg
   xmlns:dc="http://purl.org/dc/elements/1.1/"
   xmlns:cc="http://creativecommons.org/ns#"
   xmlns:rdf="http://www.w3.org/1999/02/22-rdf-syntax-ns#"
   xmlns:svg="http://www.w3.org/2000/svg"
   xmlns="http://www.w3.org/2000/svg"
   xmlns:sodipodi="http://sodipodi.sourceforge.net/DTD/sodipodi-0.dtd"
   xmlns:inkscape="http://www.inkscape.org/namespaces/inkscape"
   id="svg3372"
   version="1.1"
   inkscape:version="0.91 r13725"
   xml:space="preserve"
   width="30"
   height="30"
   viewBox="0 0 30 30"
   sodipodi:docname="alertas_icono_3.svg"><metadata
     id="metadata3378"><rdf:RDF><cc:Work
         rdf:about=""><dc:format>image/svg+xml</dc:format><dc:type
           rdf:resource="http://purl.org/dc/dcmitype/StillImage" /><dc:title></dc:title></cc:Work></rdf:RDF></metadata><defs
     id="defs3376"><clipPath
       clipPathUnits="userSpaceOnUse"
       id="clipPath3386"><path
         d="M 0,400 400,400 400,0 0,0 0,400 Z"
         id="path3388"
         inkscape:connector-curvature="0" /></clipPath></defs><sodipodi:namedview
     pagecolor="#ffffff"
     bordercolor="#666666"
     borderopacity="1"
     objecttolerance="10"
     gridtolerance="10"
     guidetolerance="10"
     inkscape:pageopacity="0"
     inkscape:pageshadow="2"
     inkscape:window-width="1440"
     inkscape:window-height="848"
     id="namedview3374"
     showgrid="false"
     inkscape:zoom="5.12"
     inkscape:cx="-36.378907"
     inkscape:cy="35.880941"
     inkscape:window-x="-8"
     inkscape:window-y="-8"
     inkscape:window-maximized="1"
     inkscape:current-layer="g3382"
     showborder="true" /><g
     id="g3380"
     inkscape:groupmode="layer"
     inkscape:label="icono_2alertas"
     transform="matrix(1.25,0,0,-1.25,0,30)"><g
       id="g3382"
       transform="matrix(0.06904814,0,0,0.06350512,-3.6402292,62.491886)"
       style="fill:#999999;fill-opacity:1"><g
         id="g3384"
         clip-path="url(#clipPath3386)"
         style="fill:#999999;fill-opacity:1"
         transform="translate(26.512055,-995.08403)"><g
           id="g3390"
           transform="translate(122.5237,227.2153)"
           style="fill:#999999;fill-opacity:1"><path
             d="m 0,0 154.951,0 c 1.429,0 2.588,1.158 2.588,2.588 l 0,11.937 c 0,1.43 -1.159,2.588 -2.588,2.588 L 0,17.113 c -1.429,0 -2.588,-1.158 -2.588,-2.588 l 0,-11.937 C -2.588,1.158 -1.429,0 0,0"
             style="fill:#999999;fill-opacity:1;fill-rule:nonzero;stroke:none"
             id="path3392"
             inkscape:connector-curvature="0" /></g><g
           id="g3394"
           transform="translate(122.5237,263.0101)"
           style="fill:#999999;fill-opacity:1"><path
             d="m 0,0 154.951,0 c 1.429,0 2.588,1.158 2.588,2.588 l 0,11.877 c 0,1.43 -1.159,2.589 -2.588,2.589 L 0,17.054 c -1.429,0 -2.588,-1.159 -2.588,-2.589 l 0,-11.877 C -2.588,1.158 -1.429,0 0,0"
             style="fill:#999999;fill-opacity:1;fill-rule:nonzero;stroke:none"
             id="path3396"
             inkscape:connector-curvature="0" /></g><g
           id="g3398"
           transform="translate(154.3224,134.4657)"
           style="fill:#999999;fill-opacity:1"><path
             d="m 0,0 -87.566,-76.194 c -0.892,1.372 -1.252,2.787 -1.252,4.644 l 0,149.249 L 0,0 Z m 10.899,-14.529 69.556,0 77.441,-66.368 -224.437,0 77.44,66.368 z M 88.095,21.206 68.516,2.583 l -39.543,0 -6.167,0 -20.489,18.623 85.778,0 z M -53.083,166.883 c 0,5.766 3.581,9.348 9.347,9.348 l 178.825,0 c 4.543,0 9.349,-4.805 9.349,-9.348 l 0,-95.418 -36.603,-33.147 -124.34,0 -36.578,31.997 0,96.568 z m 233.256,-89.184 0,-149.249 c 0,-1.857 -0.361,-3.272 -1.252,-4.644 L 91.354,0 180.173,77.699 Z m -18.622,7.823 0,19.631 11.327,-9.815 -11.327,-9.816 z m -132.694,107.822 16.776,14.232 15.917,-14.232 -32.693,0 z m -110.464,-98.079 11.411,9.888 0,-20.557 -11.411,10.669 z m 278.002,2.027 -34.844,30.252 0,39.339 c 0,14.591 -11.871,26.461 -26.462,26.461 l -47.914,0 -39.786,35.088 c -0.978,0.863 -2.447,0.863 -3.424,0 l -39.784,-35.088 -47.917,0 c -14.59,0 -26.46,-11.87 -26.46,-26.461 l 0,-39.339 -34.844,-30.252 c -0.566,-0.492 -0.891,-1.204 -0.891,-1.954 l 0,-166.888 c 0,-14.591 11.87,-26.46 26.46,-26.46 l 250.295,0 c 14.591,0 26.462,11.869 26.462,26.46 l 0,166.888 c 0,0.75 -0.325,1.462 -0.891,1.954"
             style="fill:#999999;fill-opacity:1;fill-rule:nonzero;stroke:none"
             id="path3400"
             inkscape:connector-curvature="0" /></g><g
           id="g3402"
           transform="translate(280.0628,194.0686)"
           style="fill:#999999;fill-opacity:1"><path
             d="m 0,0 0,11.937 c 0,1.43 -1.159,2.588 -2.588,2.588 l -154.951,0 c -1.429,0 -2.588,-1.158 -2.588,-2.588 l 0,-11.937 c 0,-1.43 1.159,-2.588 2.588,-2.588 l 154.951,0 C -1.159,-2.588 0,-1.43 0,0"
             style="fill:#999999;fill-opacity:1;fill-rule:nonzero;stroke:none"
             id="path3404"
             inkscape:connector-curvature="0" /></g></g></g></g></svg>